# xmcd
#
# Track frame offsets: 
#        183
#        21165
#        38190
#        55433
#        77335
#        89783
#        104933
#        119258
#        133250
#        149390
#        161073
#        187068
#        200350
#        216188
#        230048
#        247043
#        261865
#
# Disc length: 3653 seconds
#
# Revision: 0
# Processed by: cddbd v1.4PL0 Copyright (c) Steve Scherf et al.
# Submitted via: ExactAudioCopy v0.90b4
#
DISCID=0c0e4311
DTITLE=Peter Green, Mick Green - Two Green Make A Blues
DYEAR=1986
DGENRE=Blues
TTITLE0=All Quiet
TTITLE1=Chinese White Boy
TTITLE2=Rock And Roll Feeling
TTITLE3=Doctor
TTITLE4=Four Minute Melody
TTITLE5=Post Modern Blues
TTITLE6=Eprom Song
TTITLE7=Intensity Of Vision
TTITLE8=Camel's Eye Blues
TTITLE9=Way You Dance
TTITLE10=End Zone
TTITLE11=Nietzsche's Ass
TTITLE12=Who Do You Love
TTITLE13=Stab The Knife
TTITLE14=Rosy
TTITLE15=So Bad The Blues
TTITLE16=Monkey Man
EXTD=
EXTT0=
EXTT1=
EXTT2=
EXTT3=
EXTT4=
EXTT5=
EXTT6=
EXTT7=
EXTT8=
EXTT9=
EXTT10=
EXTT11=
EXTT12=
EXTT13=
EXTT14=
EXTT15=
EXTT16=
PLAYORDER=
